<svg xmlns="http://www.w3.org/2000/svg" viewBox="0 0 48.5 46.8"><defs><style>.cls-1{fill:#fff;}</style></defs><title>anchor</title><g id="Layer_2" data-name="Layer 2"><g id="Layer_3" data-name="Layer 3"><path class="cls-1" d="M31.42,7.17A7.17,7.17,0,1,1,24.25,0,7.17,7.17,0,0,1,31.42,7.17ZM24.25,3.33a3.84,3.84,0,1,0,3.84,3.84A3.84,3.84,0,0,0,24.25,3.33Z"/><path class="cls-1" d="M21.63,41.55V16H11v-2.7H37.75v2.58L27,16l.25,25.5s4.33,0,9.13-4.62a23.68,23.68,0,0,0,5.13-8.37l-2.12-1.1L45.25,20l3.25,9-2.75.25S43.38,46.55,24.5,46.8,2.25,29.55,2.25,29.55L0,29.3l3.25-8.87L9.38,28l-2.62.75A28.57,28.57,0,0,0,12,37C15.5,40.55,21.63,41.55,21.63,41.55Z"/></g></g></svg>