<svg xmlns="http://www.w3.org/2000/svg" viewBox="0 0 49.11 24.34"><defs><style>.cls-1,.cls-2{fill:#fff;}.cls-1{opacity:0.64;}.cls-3{fill:none;stroke:#fff;stroke-linecap:round;stroke-miterlimit:10;stroke-width:3px;}</style></defs><title>canal</title><g id="Layer_2" data-name="Layer 2"><g id="Layer_8" data-name="Layer 8"><path class="cls-1" d="M41.58,8.54H2.25a.75.75,0,0,1-.75-.75v-7A.75.75,0,0,1,2.25,0H36.19a1.42,1.42,0,0,1,1.1.75s5.18,5.91,5.1,6.69C42.35,7.85,42.39,8.34,41.58,8.54ZM9.69,6.74V1.8a.5.5,0,0,0-.5-.5H4.25a.5.5,0,0,0-.5.5V6.74a.5.5,0,0,0,.5.5H9.19A.5.5,0,0,0,9.69,6.74Zm7.48,0V1.8a.5.5,0,0,0-.5-.5H11.73a.5.5,0,0,0-.5.5V6.74a.5.5,0,0,0,.5.5h4.94A.5.5,0,0,0,17.16,6.74Zm7.48,0V1.8a.5.5,0,0,0-.5-.5H19.2a.5.5,0,0,0-.5.5V6.74a.5.5,0,0,0,.5.5h4.94A.5.5,0,0,0,24.64,6.74Zm14.42.09c.09-.29-.19-.72-.19-.72L36,1.92c-.14-.25-.45-.61-.72-.61l-7.92,0a.5.5,0,0,0-.5.5l.83,5a.5.5,0,0,0,.5.5H38.54C38.82,7.28,39,7.12,39.06,6.83Z"/><path class="cls-2" d="M43.42,17.51h-.48c-.55,0-2.45-2-4.54-2-2.92,0-5.94,2-7.17,2-2.4,0-5.67-2-6.67-2-2.85,0-7,2-7.87,2-2.73,0-6.77-2-7.5-2-2.65,0-6,2-6.13,2H2.25a.75.75,0,0,1-.75-.75V10.39a.75.75,0,0,1,.75-.75H46.83c.41,0,.9.38.75.75L44.29,16.8C44,17.23,43.83,17.51,43.42,17.51Z"/><path class="cls-3" d="M1.5,22.8a4.81,4.81,0,0,0,1.41-.26,7.62,7.62,0,0,1,5.47-2.65c.81,0,4.58,2.94,8.21,3,1.08,0,4.59-2.89,7.79-3,1.09,0,4.79,2.93,8,2.93,1.41,0,3.08-2.6,6.63-2.64,2.52,0,5.67,2.67,7.76,2.66a7.54,7.54,0,0,1,.89,0"/></g></g></svg>