<svg xmlns="http://www.w3.org/2000/svg" viewBox="0 0 44 35"><defs><style>.cls-1{fill:none;stroke:#fff;stroke-linecap:round;stroke-miterlimit:10;stroke-width:4px;}.cls-2{fill:#fff;}</style></defs><title>linens</title><g id="Layer_2" data-name="Layer 2"><g id="Layer_7" data-name="Layer 7"><path class="cls-1" d="M2,2V33m0-6.37H42m0,0V33"/><circle class="cls-2" cx="8.56" cy="11.13" r="3.25"/><path class="cls-2" d="M5.62,16.22a.65.65,0,0,1,.53-.2l6.62-.14V6.94A1.16,1.16,0,0,1,13,6.53a1.13,1.13,0,0,1,.55-.12L42,13.17a1.14,1.14,0,0,1,.58.39,1.57,1.57,0,0,1,.27.81V22.5a.75.75,0,0,1-.28.6.8.8,0,0,1-.56.28H6.12a1,1,0,0,1-.52-.23.82.82,0,0,1-.29-.58V16.84A1.16,1.16,0,0,1,5.62,16.22Z"/><path class="cls-2" d="M5.31,22.56"/><path class="cls-2" d="M6.12,23.38"/></g></g></svg>