<svg xmlns="http://www.w3.org/2000/svg" viewBox="0 0 42.32 42.87"><defs><style>.cls-1{fill:#fff;}</style></defs><title>pet-friendly</title><g id="Layer_2" data-name="Layer 2"><g id="Layer_9" data-name="Layer 9"><ellipse class="cls-1" cx="14.98" cy="8.96" rx="4.94" ry="9.08" transform="translate(-1.6 3.5) rotate(-12.67)"/><ellipse class="cls-1" cx="27.68" cy="8.92" rx="9.08" ry="4.94" transform="translate(12.79 33.91) rotate(-77.07)"/><ellipse class="cls-1" cx="5.92" cy="18.73" rx="4.85" ry="7.54" transform="translate(-9.87 7.04) rotate(-35.95)"/><ellipse class="cls-1" cx="36.67" cy="18.73" rx="7.54" ry="4.85" transform="translate(2.12 41.12) rotate(-60)"/><ellipse class="cls-1" cx="14.91" cy="36.29" rx="8.15" ry="6.58"/><ellipse class="cls-1" cx="28.53" cy="36.29" rx="8.15" ry="6.58"/><path class="cls-1" d="M24.55,20.37c.92,1.1,12.29,13.33,11,13.33-.22,0-7.37,5.33-14.49,5.22-6.58-.11-13.17-5.65-13.34-5.74-.69-.35,10-11.71,10.83-12.65,1-1.1,1.71-1.81,3-1.81A4.22,4.22,0,0,1,24.55,20.37Z"/></g></g></svg>