<svg xmlns="http://www.w3.org/2000/svg" viewBox="0 0 45.78 43"><defs><style>.cls-1{fill:#fff;}</style></defs><title>pool</title><g id="Layer_2" data-name="Layer 2"><g id="ParkerRealty_Icons_Pool_Image" data-name="ParkerRealty_Icons_Pool Image"><path class="cls-1" d="M44.13,37.57c-3.56,0-4.06-4.06-7-4-2.69.06-3.31,4-6.87,4-4.31,0-4.81-4-7.41-4-2.34,0-3.53,4-7.22,4-4.19,0-4.5-4.06-7.25-4-3.13.07-3,4-6.81,4C-.05,37.57,0,36.86,0,36H0c0-.86,0-1.56,1.56-1.56,1.81,0,3.19-4,6.81-4s4.81,3.95,7.12,4c2.87.06,3.75-4,7.34-4,3.28,0,5,4,7.09,4s3.19-4,7.06-4,4.81,4,7.13,4c1.56,0,1.56.7,1.56,1.56h0C45.69,36.86,45.44,37.57,44.13,37.57Z"/><path class="cls-1" d="M44.22,43c-3.56,0-4.06-4.06-7-4-2.69.06-3.31,4-6.87,4-4.31,0-4.81-4-7.41-4-2.34,0-3.53,4-7.22,4-4.19,0-4.5-4.06-7.25-4-3.13.07-3,4-6.81,4C0,43,.09,42.3.09,41.44h0c0-.86,0-1.56,1.56-1.56,1.81,0,3.19-4,6.81-4s4.81,3.95,7.12,4c2.87.06,3.75-4,7.34-4,3.28,0,5,4,7.09,4s3.19-4,7.06-4,4.81,4,7.13,4c1.56,0,1.56.7,1.56,1.56h0C45.78,42.3,45.53,43,44.22,43Z"/><path class="cls-1" d="M12.75,5s0-4.87,5.87-5,5.75,7.19,5.75,7.19-.31.94-1.81.94S21,7.07,21,7.07s-.31-3.31-2.37-3.31-2.56,2.56-2.56,2.56.13,3.88.25,4.19,11.56.19,11.88-.19,0-5.19,0-5.19S28.06.13,33.94,0s5.75,7.44,5.75,7.44-.06.81-1.87.81-1.87-.88-1.87-.88S35.63,3.88,34,3.82s-1.94,1.81-1.94,1.81V31s-.25.81-1.94.88-2-.94-2-.94.31-4.19,0-4.75-11.44-.31-11.81,0,0,4.81,0,4.81-.37.81-1.87.88S12.75,31,12.75,31ZM28.5,16.64v-2a.3.3,0,0,0-.3-.3H16.55a.3.3,0,0,0-.3.3v2a.3.3,0,0,0,.3.3H28.2A.3.3,0,0,0,28.5,16.64Zm0,5.75v-2a.3.3,0,0,0-.3-.3H16.55a.3.3,0,0,0-.3.3v2a.3.3,0,0,0,.3.3H28.2A.3.3,0,0,0,28.5,22.39Z"/></g></g></svg>